<?xml version="1.0" encoding="utf-8"?>
<!-- Generator: Adobe Illustrator 15.1.0, SVG Export Plug-In . SVG Version: 6.00 Build 0)  -->
<!DOCTYPE svg PUBLIC "-//W3C//DTD SVG 1.1//EN" "http://www.w3.org/Graphics/SVG/1.1/DTD/svg11.dtd">
<svg version="1.1" id="Layer_1" xmlns="http://www.w3.org/2000/svg" xmlns:xlink="http://www.w3.org/1999/xlink" x="0px" y="0px"
	 width="375.702px" height="239.945px" viewBox="0 0 375.702 239.945" enable-background="new 0 0 375.702 239.945"
	 xml:space="preserve">
<g>
	<polygon fill="#0BA0CE" points="237.167,61.146 237.167,61.152 202.126,61.152 202.126,152.016 172.929,152.016 172.929,61.152 
		138.534,61.152 138.534,32.016 202.142,32.016 	"/>
	<polygon fill="#FF8000" points="237.167,32.016 237.167,56.406 207.853,32.016 	"/>
</g>
<g>
	<path fill="#0BA0CE" d="M65.673,179.322h7.389l0.633,4.537h0.213c1.951-3.588,4.908-5.172,7.492-5.172
		c1.637,0,2.533,0.213,3.271,0.529l-1.477,7.811c-0.949-0.211-1.795-0.422-2.955-0.422c-1.9,0-4.223,1.158-5.488,4.432v14.67h-9.078
		V179.322z"/>
	<path fill="#0BA0CE" d="M87.206,171.512c0-2.639,2.111-4.539,5.064-4.539c2.957,0,5.068,1.9,5.068,4.539s-2.111,4.537-5.068,4.537
		C89.317,176.049,87.206,174.15,87.206,171.512z M87.733,179.322h9.078v26.385h-9.078V179.322z"/>
	<path fill="#0BA0CE" d="M103.671,171.406h9.078v26.703h12.98v7.598h-22.059V171.406z"/>
	<path fill="#0BA0CE" d="M129.849,198.215c0-5.49,4.221-8.551,14.354-9.605c-0.211-1.898-1.373-2.744-3.695-2.744
		c-1.9,0-3.904,0.74-6.648,2.215l-3.166-5.908c3.693-2.217,7.492-3.484,11.609-3.484c6.861,0,10.977,3.695,10.977,12.35v14.67
		h-7.387l-0.635-2.533h-0.211c-2.111,1.9-4.434,3.166-7.283,3.166C132.804,206.34,129.849,202.541,129.849,198.215z M144.202,197.58
		v-3.588c-4.328,0.633-5.699,2.006-5.699,3.482c0,1.213,0.844,1.9,2.426,1.9C142.407,199.375,143.253,198.637,144.202,197.58z"/>
	<path fill="#0BA0CE" d="M167.212,202.857h-0.211l-0.74,2.85h-7.07v-36.729h9.076v8.549l-0.211,3.799
		c1.848-1.688,4.17-2.639,6.492-2.639c6.227,0,10.289,5.277,10.289,13.354c0,9.129-5.381,14.299-10.977,14.299
		C171.54,206.34,169.218,205.18,167.212,202.857z M175.55,192.197c0-4.328-1.268-6.121-3.693-6.121c-1.373,0-2.428,0.529-3.59,1.898
		v9.713c1.057,0.949,2.217,1.266,3.379,1.266C173.755,198.953,175.55,197.266,175.55,192.197z"/>
	<path fill="#0BA0CE" d="M188.427,192.514c0-8.549,6.227-13.826,12.666-13.826c7.811,0,11.504,5.699,11.504,12.771
		c0,1.582-0.211,3.166-0.369,3.799h-15.041c0.844,3.168,3.166,4.223,6.123,4.223c1.793,0,3.482-0.527,5.383-1.582l2.953,5.381
		c-2.848,2.006-6.648,3.061-9.604,3.061C194.337,206.34,188.427,201.275,188.427,192.514z M204.892,189.348
		c0-2.004-0.844-3.799-3.588-3.799c-2.006,0-3.695,1.162-4.223,3.799H204.892z"/>
	<path fill="#0BA0CE" d="M217.558,196.42v-27.441h9.076v27.758c0,1.795,0.844,2.322,1.479,2.322c0.316,0,0.527,0,0.951-0.105
		l1.055,6.648c-0.951,0.422-2.43,0.738-4.432,0.738C219.563,206.34,217.558,202.33,217.558,196.42z"/>
	<path fill="#0BA0CE" d="M229.696,171.406h9.605l3.588,14.988c0.949,3.639,1.582,7.176,2.531,10.871h0.211
		c0.951-3.695,1.637-7.232,2.533-10.871l3.484-14.988h9.287l-10.131,34.301h-10.977L229.696,171.406z"/>
	<path fill="#0BA0CE" d="M262.942,171.512c0-2.639,2.111-4.539,5.068-4.539c2.953,0,5.064,1.9,5.064,4.539s-2.111,4.537-5.064,4.537
		C265.054,176.049,262.942,174.15,262.942,171.512z M263.472,179.322h9.076v26.385h-9.076V179.322z"/>
	<path fill="#0BA0CE" d="M277.298,192.514c0-8.549,6.229-13.826,12.666-13.826c7.811,0,11.504,5.699,11.504,12.771
		c0,1.582-0.211,3.166-0.369,3.799h-15.041c0.844,3.168,3.168,4.223,6.121,4.223c1.795,0,3.484-0.527,5.385-1.582l2.955,5.381
		c-2.85,2.006-6.65,3.061-9.605,3.061C283.21,206.34,277.298,201.275,277.298,192.514z M293.763,189.348
		c0-2.004-0.844-3.799-3.588-3.799c-2.006,0-3.695,1.162-4.221,3.799H293.763z"/>
	<path fill="#0BA0CE" d="M304.106,179.322h8.973l2.004,11.08c0.422,2.639,0.633,5.277,1.057,8.023h0.211
		c0.422-2.746,0.844-5.49,1.479-8.023l2.426-11.08h7.705l2.533,11.08c0.633,2.639,1.055,5.277,1.584,8.023h0.211
		c0.422-2.746,0.633-5.385,1.055-8.023l2.004-11.08h8.34l-6.016,26.385h-10.555l-1.9-9.182c-0.422-2.428-0.844-4.855-1.266-7.758
		h-0.213c-0.422,2.902-0.738,5.33-1.16,7.758l-1.795,9.182H310.44L304.106,179.322z"/>
	<polygon fill="#0BA0CE" points="32.017,166.34 32.017,175.898 43.3,175.898 43.3,205.707 52.878,205.707 52.878,175.898 
		64.372,175.898 64.372,166.34 	"/>
</g>
</svg>
