<?xml version="1.0" encoding="utf-8"?>
<!-- Generator: Adobe Illustrator 15.1.0, SVG Export Plug-In . SVG Version: 6.00 Build 0)  -->
<!DOCTYPE svg PUBLIC "-//W3C//DTD SVG 1.1//EN" "http://www.w3.org/Graphics/SVG/1.1/DTD/svg11.dtd">
<svg version="1.1" id="Layer_1" xmlns="http://www.w3.org/2000/svg" xmlns:xlink="http://www.w3.org/1999/xlink" x="0px" y="0px"
	 width="703.324px" height="158.733px" viewBox="0 0 703.324 158.733" enable-background="new 0 0 703.324 158.733"
	 xml:space="preserve">
<g>
	<path fill="#0BA0CE" d="M107.314,65.33h14.775l1.266,9.076h0.423c3.905-7.178,9.815-10.344,14.987-10.344
		c3.271,0,5.066,0.424,6.543,1.057l-2.955,15.619c-1.899-0.422-3.588-0.844-5.91-0.844c-3.799,0-8.443,2.322-10.977,8.865v29.34
		h-18.152V65.33z"/>
	<path fill="#0BA0CE" d="M150.377,49.711c0-5.277,4.223-9.078,10.132-9.078c5.91,0,10.132,3.801,10.132,9.078
		c0,5.275-4.222,9.076-10.132,9.076C154.6,58.787,150.377,54.986,150.377,49.711z M151.433,65.33h18.153v52.77h-18.153V65.33z"/>
	<path fill="#0BA0CE" d="M183.307,49.5h18.154v53.402h25.962V118.1h-44.116V49.5z"/>
	<path fill="#0BA0CE" d="M235.659,103.113c0-10.977,8.443-17.098,28.707-19.209c-0.423-3.799-2.745-5.488-7.388-5.488
		c-3.8,0-7.811,1.479-13.299,4.434l-6.332-11.82c7.388-4.434,14.986-6.967,23.219-6.967c13.721,0,21.952,7.389,21.952,24.697v29.34
		h-14.775l-1.267-5.066h-0.422c-4.223,3.801-8.866,6.334-14.564,6.334C241.568,119.367,235.659,111.768,235.659,103.113z
		 M264.366,101.846V94.67c-8.655,1.266-11.398,4.01-11.398,6.965c0,2.428,1.688,3.801,4.854,3.801
		C260.777,105.436,262.466,103.957,264.366,101.846z"/>
	<path fill="#0BA0CE" d="M310.385,112.4h-0.422l-1.478,5.699h-14.143V44.645h18.152v17.098l-0.421,7.598
		c3.693-3.377,8.336-5.277,12.98-5.277c12.454,0,20.58,10.555,20.58,26.703c0,18.258-10.765,28.602-21.952,28.602
		C319.039,119.367,314.396,117.045,310.385,112.4z M327.06,91.082c0-8.654-2.532-12.242-7.388-12.242
		c-2.744,0-4.854,1.055-7.177,3.799v19.42c2.111,1.898,4.433,2.531,6.755,2.531C323.472,104.59,327.06,101.215,327.06,91.082z"/>
	<path fill="#0BA0CE" d="M352.814,91.715c0-17.098,12.453-27.652,25.329-27.652c15.62,0,23.009,11.398,23.009,25.541
		c0,3.166-0.423,6.332-0.74,7.6h-30.078c1.688,6.332,6.332,8.443,12.242,8.443c3.589,0,6.966-1.057,10.766-3.166l5.91,10.766
		c-5.699,4.01-13.299,6.121-19.208,6.121C364.635,119.367,352.814,109.234,352.814,91.715z M385.742,85.383
		c0-4.012-1.688-7.6-7.176-7.6c-4.012,0-7.388,2.322-8.443,7.6H385.742z"/>
	<path fill="#0BA0CE" d="M411.074,99.525V44.645h18.153v55.514c0,3.588,1.688,4.643,2.955,4.643c0.634,0,1.055,0,1.9-0.211
		l2.109,13.299c-1.899,0.844-4.854,1.479-8.864,1.479C415.085,119.367,411.074,111.346,411.074,99.525z"/>
	<path fill="#0BA0CE" d="M435.35,49.5h19.208l7.177,29.973c1.9,7.281,3.166,14.354,5.066,21.742h0.422
		c1.899-7.389,3.271-14.461,5.065-21.742l6.966-29.973h18.575l-20.264,68.6h-21.952L435.35,49.5z"/>
	<path fill="#0BA0CE" d="M501.842,49.711c0-5.277,4.223-9.078,10.133-9.078s10.132,3.801,10.132,9.078
		c0,5.275-4.222,9.076-10.132,9.076S501.842,54.986,501.842,49.711z M502.898,65.33h18.152v52.77h-18.152V65.33z"/>
	<path fill="#0BA0CE" d="M530.551,91.715c0-17.098,12.454-27.652,25.33-27.652c15.62,0,23.008,11.398,23.008,25.541
		c0,3.166-0.422,6.332-0.739,7.6h-30.078c1.688,6.332,6.332,8.443,12.242,8.443c3.589,0,6.966-1.057,10.765-3.166l5.911,10.766
		c-5.699,4.01-13.299,6.121-19.208,6.121C542.372,119.367,530.551,109.234,530.551,91.715z M563.479,85.383
		c0-4.012-1.688-7.6-7.176-7.6c-4.012,0-7.388,2.322-8.444,7.6H563.479z"/>
	<path fill="#0BA0CE" d="M584.168,65.33h17.942l4.01,22.162c0.845,5.277,1.267,10.555,2.111,16.043h0.423
		c0.844-5.488,1.688-10.977,2.955-16.043l4.854-22.162h15.41l5.064,22.162c1.268,5.277,2.111,10.555,3.167,16.043h0.422
		c0.845-5.488,1.267-10.766,2.111-16.043l4.01-22.162h16.677l-12.032,52.77h-21.108l-3.8-18.363
		c-0.844-4.855-1.688-9.709-2.532-15.516h-0.423c-0.844,5.807-1.478,10.66-2.321,15.516L617.52,118.1h-20.687L584.168,65.33z"/>
	<g>
		<polygon fill="#0BA0CE" points="104.713,58.48 104.713,58.484 81.723,58.484 81.723,118.1 62.565,118.1 62.565,58.484 40,58.484 
			40,39.367 81.732,39.367 		"/>
		<polygon fill="#FF8000" points="104.713,39.367 104.713,55.369 85.479,39.367 		"/>
	</g>
</g>
</svg>
